<?xml version="1.0" standalone="no"?>
<!DOCTYPE svg PUBLIC "-//W3C//DTD SVG 20010904//EN"
 "http://www.w3.org/TR/2001/REC-SVG-20010904/DTD/svg10.dtd">
<svg version="1.0" xmlns="http://www.w3.org/2000/svg"
 width="200.000000pt" height="200.000000pt" viewBox="0 0 200.000000 200.000000"
 preserveAspectRatio="xMidYMid meet">
<metadata>
Created by potrace 1.16, written by Peter Selinger 2001-2019
</metadata>
<g transform="translate(0.000000,200.000000) scale(0.100000,-0.100000)"
fill="#000000" stroke="none">
<path d="M920 1630 c-214 -29 -389 -153 -486 -343 -48 -95 -67 -175 -68 -293
l-1 -101 -66 -74 c-128 -143 -178 -231 -179 -310 0 -55 26 -94 76 -115 70 -29
230 -9 383 49 l65 24 65 -33 c99 -50 179 -68 301 -67 87 0 119 5 185 27 201
68 348 215 411 409 21 67 27 103 28 194 l1 113 46 47 c177 183 240 333 174
412 -36 42 -83 55 -182 48 -57 -4 -118 -18 -200 -45 l-118 -40 -68 34 c-111
56 -250 81 -367 64z m230 -107 c163 -45 299 -170 361 -332 l18 -50 -72 -64
c-74 -66 -208 -169 -213 -164 -1 1 3 22 9 46 10 38 10 44 -8 57 -16 12 -22 12
-39 1 -25 -17 -107 -203 -103 -237 2 -25 3 -25 127 -32 137 -9 144 -8 159 20
16 31 -9 55 -64 61 l-47 6 64 44 c34 25 93 69 129 98 36 29 70 53 74 53 10 0
-4 -123 -22 -184 -68 -231 -280 -390 -523 -390 -230 0 -429 138 -511 354 l-19
49 88 76 c48 41 114 94 146 117 55 38 59 40 52 17 -19 -59 -18 -77 2 -88 11
-6 27 -8 35 -5 18 6 107 209 107 241 0 28 -12 30 -151 36 -115 5 -139 -2 -139
-37 0 -32 17 -44 69 -48 l44 -3 -79 -57 c-43 -32 -101 -75 -129 -97 -27 -22
-53 -37 -57 -35 -11 7 0 105 19 174 32 118 104 219 206 291 144 101 300 129
467 82z m624 -6 c14 -10 17 -21 11 -45 -8 -40 -69 -132 -132 -202 l-50 -54
-32 64 c-18 36 -53 90 -77 122 -24 31 -44 58 -44 61 0 4 121 41 185 56 60 14
119 13 139 -2z m-1344 -799 c18 -35 52 -89 77 -121 25 -32 44 -60 42 -61 -14
-14 -186 -58 -240 -63 -103 -9 -121 25 -64 122 22 38 141 185 150 185 2 0 18
-28 35 -62z"/>
</g>
</svg>
